:SAMPLES-PER-SECOND 30
:FULLY-SPECIFIED
:DEGREES
558
root  42.2996 33.5889 -54.2505 23.9238 -56.3116 -11.7407
RightUpLeg  -25.3398 -8.25476 11.1195
RightLeg  23.8649 -4.40545 -1.62109
RightFoot  -4.35169 -0.0065781 0.423005
RightToes  -16.3416 -0.0620173 -0.146777
Spine  -0.869627 0.507629 2.09368
Spine1  -1.67118 0.793945 4.72483
HEad  -74.5579 3.49366 5.94795
LeftShoulder1  -1.94126e-019 -3.10601e-018 -2.51263e-017
LeftArm  -15.2842 12.5393 -77.5314
LeftForeArm  30.9456 -43.9824 -8.72811
LeftHand  -0.387914 -1.44624 6.74918
RightShoulder  -4.96962e-017 0 -2.36833e-017
RightArm  -36.8155 -25.1636 68.127
RightForeArm  71.9325 1.70077 0.233623
RightHand  -0.0829612 -3.13992 -3.51232
LeftUpLeg  -22.7974 3.07833 4.8844
LeftLeg  58.9171 5.46269 7.79725
LeftFoot  -3.79576 -0.0250672 -0.594938
LeftToes  -34.6882 1.87998e-006 4.79886e-008
559
root  41.4579 33.8407 -53.6892 21.2626 -56.8603 -9.50345
RightUpLeg  -21.4456 -8.92411 9.45423
RightLeg  20.9389 -3.99574 -1.24202
RightFoot  -4.26584 -0.00749228 0.400724
RightToes  -17.0505 -0.0628653 -0.1507
Spine  -0.767177 0.830568 1.68593
Spine1  -1.42773 1.6243 3.80482
HEad  -73.704 3.38555 5.6055
LeftShoulder1  -1.94126e-019 -3.10601e-018 -2.51263e-017
LeftArm  -15.3809 10.8417 -76.1557
LeftForeArm  33.552 -49.8935 -10.8063
LeftHand  -0.400345 -2.41934 6.16226
RightShoulder  -4.96962e-017 0 -2.36833e-017
RightArm  -36.6411 -21.6606 66.8989
RightForeArm  71.7136 1.76323 0.244855
RightHand  -0.09778 -2.24549 -3.2213
LeftUpLeg  -25.7303 6.37441 2.96027
LeftLeg  60.3756 5.12635 7.73146
LeftFoot  -4.20114 -0.0278823 -0.59864
LeftToes  -34.9077 1.87998e-006 4.79886e-008
560
root  40.6679 34.0434 -53.141 19.3168 -57.4493 -7.65863
RightUpLeg  -18.023 -8.96111 7.96491
RightLeg  18.12 -3.83145 -0.986245
RightFoot  -4.10324 -0.00984272 0.397793
RightToes  -17.2085 -0.0632954 -0.154008
Spine  -0.780826 1.22709 1.31303
Spine1  -1.43205 2.62088 2.96414
HEad  -73.154 3.24906 5.18561
LeftShoulder1  -1.94126e-019 -3.10601e-018 -2.51263e-017
LeftArm  -15.2053 9.27119 -74.0867
LeftForeArm  35.497 -55.6625 -13.5094
LeftHand  -0.395384 -2.83991 5.80624
RightShoulder  -4.96962e-017 0 -2.36833e-017
RightArm  -36.9387 -17.3513 65.2248
RightForeArm  71.533 2.80549 0.427835
RightHand  -0.108752 -1.24747 -2.89165
LeftUpLeg  -29.0931 9.14778 1.24809
LeftLeg  59.8401 5.5293 8.16514
LeftFoot  -4.28941 -0.0288067 -0.607668
LeftToes  -34.465 1.87998e-006 4.79886e-008
561
root  39.8854 34.1813 -52.5852 17.4344 -58.0758 -5.91873
RightUpLeg  -14.7137 -9.38771 6.59024
RightLeg  15.3853 -3.43032 -0.709807
RightFoot  -4.05154 -0.0102312 0.386617
RightToes  -16.9815 -0.0635677 -0.15503
Spine  -0.767531 1.56538 0.89797
Spine1  -1.39367 3.44952 2.10419
HEad  -72.6203 3.2265 4.81508
LeftShoulder1  -1.94126e-019 -3.10601e-018 -2.51263e-017
LeftArm  -15.3236 7.0511 -71.0339
LeftForeArm  37.4961 -60.2445 -16.3454
LeftHand  -0.363739 -3.51105 4.99897
RightShoulder  -4.96962e-017 0 -2.36833e-017
RightArm  -36.1459 -12.1944 63.0695
RightForeArm  70.748 4.88514 0.794993
RightHand  -0.124911 0.567414 -2.5066
LeftUpLeg  -32.1143 11.0086 -0.138548
LeftLeg  57.2111 6.34041 8.4859
LeftFoot  -3.54134 -0.0199172 -0.482743
LeftToes  -33.9281 1.87998e-006 4.79886e-008
